<svg width="25" height="24" viewBox="0 0 25 24" fill="none" xmlns="http://www.w3.org/2000/svg">
<path d="M22.5041 6.9499C21.8641 4.7799 20.0541 2.9699 17.8841 2.3299C16.2341 1.8499 15.0941 1.8899 14.3041 2.4799C13.3541 3.1899 13.2441 4.4699 13.2441 5.3799V7.8699C13.2441 10.3299 14.3641 11.5799 16.5641 11.5799H19.4341C20.3341 11.5799 21.6241 11.4699 22.3341 10.5199C22.9441 9.7399 22.9941 8.5999 22.5041 6.9499Z" fill="#226D64"/>
<path d="M19.7434 13.3599C19.4834 13.0599 19.1034 12.8899 18.7134 12.8899H15.1334C13.3734 12.8899 11.9434 11.4599 11.9434 9.69991V6.11991C11.9434 5.72991 11.7734 5.34991 11.4734 5.08991C11.1834 4.82991 10.7834 4.70991 10.4034 4.75991C8.05339 5.05991 5.89339 6.34991 4.48339 8.28991C3.06339 10.2399 2.54339 12.6199 2.99339 14.9999C3.64339 18.4399 6.39339 21.1899 9.84339 21.8399C10.3934 21.9499 10.9434 21.9999 11.4934 21.9999C13.3034 21.9999 15.0534 21.4399 16.5434 20.3499C18.4834 18.9399 19.7734 16.7799 20.0734 14.4299C20.1234 14.0399 20.0034 13.6499 19.7434 13.3599Z" fill="#226D64"/>
</svg>
