<svg width="25" height="24" viewBox="0 0 25 24" fill="none" xmlns="http://www.w3.org/2000/svg">
<path d="M21.6159 13.6401V14.6401C21.6159 14.9101 21.4059 15.1301 21.1259 15.1401H19.6659C19.1359 15.1401 18.6559 14.7501 18.6159 14.2301C18.5859 13.9201 18.7059 13.6301 18.9059 13.4301C19.0859 13.2401 19.3359 13.1401 19.6059 13.1401H21.1159C21.4059 13.1501 21.6159 13.3701 21.6159 13.6401Z" fill="#226D64"/>
<path d="M18.1552 12.6901C17.6552 13.1801 17.4152 13.9101 17.6152 14.6701C17.8752 15.6001 18.7852 16.1901 19.7452 16.1901H20.6152C21.1652 16.1901 21.6152 16.6401 21.6152 17.1901V17.3801C21.6152 19.4501 19.9252 21.1401 17.8552 21.1401H6.37523C4.30523 21.1401 2.61523 19.4501 2.61523 17.3801V10.6501C2.61523 9.42014 3.20523 8.33014 4.11523 7.65014C4.74523 7.17014 5.52523 6.89014 6.37523 6.89014H17.8552C19.9252 6.89014 21.6152 8.58014 21.6152 10.6501V11.0901C21.6152 11.6401 21.1652 12.0901 20.6152 12.0901H19.5952C19.0352 12.0901 18.5252 12.3101 18.1552 12.6901Z" fill="#226D64"/>
<path d="M16.3651 4.82C16.6351 5.09 16.4051 5.51 16.0251 5.51L8.3451 5.5C7.9051 5.5 7.6751 4.96 7.9951 4.65L9.6151 3.02C10.9851 1.66 13.2051 1.66 14.5751 3.02L16.3251 4.79C16.3351 4.8 16.3551 4.81 16.3651 4.82Z" fill="#226D64"/>
</svg>
